<svg width="134" height="142" viewBox="0 0 134 142" fill="none" xmlns="http://www.w3.org/2000/svg">
<path d="M128.975 34.4979C128.763 34.3132 128.54 34.1324 128.313 33.9598C118.537 27.8765 105.771 32.7876 97.9393 40.1844C90.4586 46.5617 85.2598 58.7109 91.6561 67.3648C92.5972 68.6034 93.8717 69.5633 95.2596 70.2532C107.593 75.4961 121.996 67.9175 129.057 57.2814C134.101 50.8445 135.503 40.1904 128.975 34.4979ZM92.7986 2.81966C87.426 -1.75325 78.4912 -0.00682284 73.1068 4.333C62.3326 12.8352 55.6445 29.3952 63.1324 41.835C63.9098 42.9157 64.8922 43.8347 66.0093 44.5583C74.0553 49.6305 84.136 44.3274 89.589 37.6434C96.9608 28.986 101.393 15.3137 94.8578 5.17485C94.2558 4.25221 93.5657 3.47265 92.7986 2.81966ZM125.912 83.9948C116.328 76.4109 101.854 80.0388 93.2714 87.8404C86.5192 92.9645 82.3523 104.172 88.8795 110.905C98.7084 119.483 114.772 114.876 123.166 106.053C129.15 100.605 132.184 90.2059 125.912 83.9948ZM44.5178 14.8235C40.68 11.3276 34.7721 10.2748 29.9355 13.1332C17.0099 20.7903 11.6815 40.3706 20.8124 52.5835C24.7371 57.5506 32.0645 57.5821 37.1204 54.2547C47.9098 47.1157 52.5842 31.7972 47.8822 19.9642C47.2047 17.9383 46.018 16.19 44.5178 14.8235ZM68.1369 70.4391C60.5422 63.6707 49.344 60.6819 39.2327 62.1025C27.866 64.1327 16.4637 68.1294 7.11106 75.1598C-0.462238 79.4672 -2.1237 90.7384 4.32076 96.5827C11.9219 103.783 23.49 104.347 31.6046 110.884C39.0958 115.756 41.8788 124.503 45.7583 132.071C48.8402 138.764 56.5486 144.155 64.0435 140.956C71.0862 137.157 73.4605 128.513 75.4497 121.325C77.6565 108.741 79.8714 95.4223 76.1402 82.9931C74.6972 77.9554 71.8476 73.7453 68.1369 70.4391Z" fill="black"/>
</svg>
