<?xml version="1.0" encoding="iso-8859-1"?>
<!-- Generator: Adobe Illustrator 18.0.0, SVG Export Plug-In . SVG Version: 6.00 Build 0)  -->
<!DOCTYPE svg PUBLIC "-//W3C//DTD SVG 1.1//EN" "http://www.w3.org/Graphics/SVG/1.1/DTD/svg11.dtd">
<svg version="1.1" id="Capa_1" xmlns="http://www.w3.org/2000/svg" xmlns:xlink="http://www.w3.org/1999/xlink" x="0px" y="0px"
	 viewBox="0 0 268.783 268.783" style="enable-background:new 0 0 268.783 268.783;" xml:space="preserve">
<path d="M2.25,207.996c0.616,3.801,4.265,6.912,8.114,6.912h18.856c3.854,0,7.145-3.148,7.326-6.988l0.12-2.567
	c0.175-3.845-1.951-9.168-4.735-11.83l-1.955-1.873c-2.783-2.657-2.565-6.758,0.48-9.111l20.13-20.938
	c3.042-2.348,6.946-1.459,8.666,1.985l22.533,45.064c1.726,3.438,6.279,6.258,10.129,6.258h14.798c3.846,0,6.749-3.14,6.45-6.975
	l-0.056-0.672c-0.305-3.832-3.127-8.793-6.271-11.01l-6.547-4.626c-3.143-2.224-6.269-10.132-4.379-13.485
	c0,0,1.685-4.858,13.702-4.858h26.619c2.733,0.03,3.559,2.903,5.047,6.449l12.112,28.733c1.496,3.54,5.867,6.445,9.717,6.445h18.472
	c3.854,0,6.826-2.857,6.616-6.348c-0.214-3.493-2.856-8.313-5.868-10.708l-12.806-10.179c-3.009-2.395-8.403-13.989-5.361-15.255
	l12.207-7.998c4.028-2.185,6.979-3.059,9.792-0.435l49.479,46.146c2.819,2.627,8.268,4.778,12.117,4.778h14.028
	c3.854,0,7.001-2.687,7.001-5.967c0-3.28-2.84-7.326-6.305-8.993l-11.422-5.483c-3.473-1.669-7.981-5.696-10.022-8.96
	l-30.669-48.945c-2.045-3.258-1.074-7.642,2.156-9.734l9.632-6.243c3.232-2.091,9.023-3.804,12.869-3.804h4.842
	c3.844,0,11.354-2.412,13.83-5.357l5.234-6.223c2.476-2.947,2.549-7.827,0.167-10.852c0,0-24.146-23.436-24.146-27.282v-9.1
	c0-3.846-2.605-5.231-5.795-3.071l-68.066,46.03c-3.19,2.156-8.947,3.922-12.797,3.922H77.266c-3.844,0-9.053-2.386-11.577-5.295
	L31.704,62.34c-2.522-2.915-6.886-3.147-9.699-0.52L5.497,77.203c-2.811,2.625-2.117,3.811,1.548,2.625l10.935-3.524
	c3.667-1.18,8.448,0.44,10.638,3.611l16.256,24.171c2.185,3.17,1.655,7.892-1.186,10.487l-25.155,29.42
	c-2.836,2.597-6.216,7.69-7.505,11.317l-9.551,26.842c-1.286,3.622-1.839,9.699-1.224,13.497L2.25,207.996z"/>
<g>
</g>
<g>
</g>
<g>
</g>
<g>
</g>
<g>
</g>
<g>
</g>
<g>
</g>
<g>
</g>
<g>
</g>
<g>
</g>
<g>
</g>
<g>
</g>
<g>
</g>
<g>
</g>
<g>
</g>
</svg>
