<svg width="36" height="46" viewBox="0 0 36 46" fill="none" xmlns="http://www.w3.org/2000/svg">
<path d="M5.18153 31.574L5.25153 31.21C5.2142 30.706 4.87353 30.454 4.22953 30.454C3.8562 30.454 3.52953 30.5893 3.24953 30.86C2.97886 31.1213 2.84353 31.4013 2.84353 31.7C2.84353 31.9893 2.96486 32.246 3.20753 32.47C3.45953 32.6847 3.7582 32.8807 4.10353 33.058C4.4582 33.226 4.8082 33.4127 5.15353 33.618C5.5082 33.814 5.80686 34.0707 6.04953 34.388C6.30153 34.7053 6.42753 35.0647 6.42753 35.466C6.42753 36.2967 6.10086 36.95 5.44753 37.426C4.7942 37.902 4.08953 38.14 3.33353 38.14C2.57753 38.14 1.94753 38.0047 1.44353 37.734C0.939531 37.454 0.687531 37.034 0.687531 36.474C0.687531 36.1753 0.790198 35.9047 0.995531 35.662C1.20086 35.4193 1.49486 35.298 1.87753 35.298C2.02686 35.298 2.1622 35.34 2.28353 35.424C2.40486 35.508 2.47953 35.62 2.50753 35.76C2.50753 35.9 2.42353 35.97 2.25553 35.97C1.9382 35.97 1.77953 36.1053 1.77953 36.376C1.78886 36.684 1.93353 36.964 2.21353 37.216C2.50286 37.468 2.9042 37.594 3.41753 37.594C3.9402 37.594 4.38353 37.4167 4.74753 37.062C5.12086 36.7073 5.30753 36.278 5.30753 35.774C5.30753 35.438 5.18153 35.1347 4.92953 34.864C4.67753 34.5933 4.3742 34.3647 4.01953 34.178C3.66486 33.982 3.30553 33.786 2.94153 33.59C2.58686 33.394 2.28353 33.156 2.03153 32.876C1.77953 32.596 1.65353 32.2787 1.65353 31.924C1.65353 31.2987 1.91953 30.7993 2.45153 30.426C2.99286 30.0527 3.6042 29.866 4.28553 29.866C4.74286 29.866 5.1582 29.9593 5.53153 30.146C5.90486 30.3327 6.0962 30.6173 6.10553 31C6.10553 31.224 6.04953 31.4107 5.93753 31.56C5.82553 31.7093 5.67153 31.784 5.47553 31.784C5.28886 31.784 5.19086 31.714 5.18153 31.574ZM8.31075 37.244L8.32475 37.678C8.32475 37.9393 8.25008 38.07 8.10075 38.07C7.87675 38.07 7.66208 38.042 7.45675 37.986C7.25142 37.9207 7.14875 37.8367 7.14875 37.734C7.14875 37.622 7.17208 37.2533 7.21875 36.628C7.27475 35.9933 7.30275 35.5173 7.30275 35.2V34.374C7.30275 33.926 7.34942 33.6553 7.44275 33.562C7.53608 33.4687 7.69942 33.3333 7.93275 33.156C8.17542 32.9787 8.34808 32.89 8.45075 32.89C8.56275 32.89 8.63275 32.9087 8.66075 32.946C8.68875 32.9833 8.70275 33.0533 8.70275 33.156C8.70275 33.6507 8.60942 34.1173 8.42275 34.556C8.37608 35.088 8.35275 35.4567 8.35275 35.662C8.39008 35.606 8.58608 35.2887 8.94075 34.71C9.29542 34.1313 9.59408 33.7067 9.83675 33.436C10.0888 33.1653 10.3128 33.03 10.5088 33.03C10.7048 33.03 10.8774 33.0953 11.0268 33.226C11.1854 33.3567 11.2648 33.52 11.2648 33.716C11.2648 34.1267 11.2181 34.7333 11.1248 35.536C11.0408 36.3293 10.9988 36.8333 10.9988 37.048C10.9988 37.2533 11.0268 37.356 11.0828 37.356C11.2414 37.3467 11.4608 37.1507 11.7408 36.768C12.0208 36.376 12.2961 35.8767 12.5668 35.27C12.8468 34.6633 13.0148 34.36 13.0708 34.36C13.1361 34.36 13.1688 34.3973 13.1688 34.472C13.1688 34.7333 13.0334 35.1487 12.7628 35.718C12.0254 37.286 11.4048 38.07 10.9008 38.07C10.5368 38.07 10.2614 37.9953 10.0748 37.846C10.0094 37.7807 9.97675 37.6127 9.97675 37.342C9.97675 37.062 10.0001 36.614 10.0468 35.998C10.1028 35.3727 10.1308 34.906 10.1308 34.598C10.1308 34.29 10.0748 34.136 9.96275 34.136C9.86008 34.136 9.58008 34.458 9.12275 35.102C8.66542 35.7367 8.42275 36.1427 8.39475 36.32C8.33875 36.6467 8.31075 36.9547 8.31075 37.244ZM16.3481 38.07C15.9841 38.07 15.7087 37.9953 15.5221 37.846C15.4567 37.7807 15.4241 37.6173 15.4241 37.356C15.4241 37.0853 15.4334 36.726 15.4521 36.278C15.2094 36.8847 14.9667 37.3373 14.7241 37.636C14.4907 37.9253 14.1874 38.07 13.8141 38.07C13.4407 38.07 13.1141 37.8973 12.8341 37.552C12.5541 37.1973 12.4141 36.6467 12.4141 35.9C12.4141 35.144 12.6241 34.4767 13.0441 33.898C13.4734 33.3193 14.0334 33.03 14.7241 33.03C15.0227 33.03 15.3587 33.226 15.7321 33.618C15.8067 33.5153 15.9374 33.394 16.1241 33.254C16.3201 33.1047 16.4834 33.03 16.6141 33.03C16.7541 33.03 16.8241 33.2073 16.8241 33.562C16.8241 33.6553 16.7961 33.8373 16.7401 34.108C16.6934 34.3787 16.6374 34.5747 16.5721 34.696C16.4881 34.9107 16.4461 35.6713 16.4461 36.978C16.4461 37.23 16.4741 37.356 16.5301 37.356C16.6887 37.3467 16.9081 37.1507 17.1881 36.768C17.4681 36.376 17.7434 35.8767 18.0141 35.27C18.2941 34.6633 18.4621 34.36 18.5181 34.36C18.5834 34.36 18.6161 34.3973 18.6161 34.472C18.6161 34.7333 18.4807 35.1487 18.2101 35.718C17.4727 37.286 16.8521 38.07 16.3481 38.07ZM14.6401 33.59C14.3787 33.59 14.0987 33.786 13.8001 34.178C13.5107 34.5607 13.3661 35.0133 13.3661 35.536C13.3661 36.0587 13.4407 36.488 13.5901 36.824C13.7487 37.16 13.9541 37.328 14.2061 37.328C14.5141 37.328 14.9667 36.558 15.5641 35.018C15.5734 34.9433 15.5827 34.8173 15.5921 34.64C15.6107 34.4533 15.6247 34.3133 15.6341 34.22C15.5501 34.0707 15.4007 33.9307 15.1861 33.8C14.9807 33.66 14.7987 33.59 14.6401 33.59ZM18.2074 33.646C18.3101 33.5247 18.4734 33.3707 18.6974 33.184C18.9214 32.988 19.0988 32.89 19.2294 32.89C19.3601 32.89 19.4254 33.0767 19.4254 33.45C19.4254 33.814 19.3274 34.1733 19.1314 34.528C19.0941 34.696 19.0661 34.9387 19.0474 35.256C19.3181 34.5187 19.5888 33.9633 19.8594 33.59C20.1301 33.2167 20.4568 33.03 20.8394 33.03C21.2314 33.03 21.5721 33.2073 21.8614 33.562C22.1508 33.9073 22.2954 34.458 22.2954 35.214C22.2954 35.9607 22.0808 36.6233 21.6514 37.202C21.2314 37.7807 20.6761 38.07 19.9854 38.07C19.6308 38.07 19.2714 37.9393 18.9074 37.678C18.9074 39.4607 18.8048 40.8187 18.5994 41.752C18.5808 41.836 18.4548 41.976 18.2214 42.172C17.9974 42.3773 17.8341 42.48 17.7314 42.48C17.6194 42.48 17.5401 42.4053 17.4934 42.256C17.4468 42.1067 17.4234 41.9667 17.4234 41.836C17.4234 40.8747 17.6194 39.638 18.0114 38.126C18.0768 37.2487 18.1188 36.2873 18.1374 35.242C18.1654 34.1967 18.1888 33.6647 18.2074 33.646ZM20.0694 37.566C20.3401 37.566 20.6201 37.3793 20.9094 37.006C21.1988 36.6233 21.3434 36.1567 21.3434 35.606C21.3434 35.046 21.2641 34.6027 21.1054 34.276C20.9561 33.94 20.7508 33.772 20.4894 33.772C20.0414 33.772 19.5328 34.7007 18.9634 36.558C18.9448 36.8193 18.9354 37.0247 18.9354 37.174C19.1968 37.4353 19.5748 37.566 20.0694 37.566ZM25.3244 34.598L25.4364 33.884C25.4364 33.7813 25.4037 33.688 25.3384 33.604C25.273 33.52 25.189 33.478 25.0864 33.478C24.741 33.478 24.4424 33.7393 24.1904 34.262C23.9384 34.7753 23.8124 35.27 23.8124 35.746C23.8124 36.222 23.9104 36.6093 24.1064 36.908C24.3024 37.1973 24.5404 37.342 24.8204 37.342C25.1097 37.342 25.3664 37.2767 25.5904 37.146C25.8144 37.0153 26.0197 36.8287 26.2064 36.586C26.5984 36.0727 26.9344 35.4893 27.2144 34.836C27.289 34.668 27.345 34.5467 27.3824 34.472C27.429 34.3973 27.4757 34.36 27.5224 34.36C27.5784 34.36 27.6064 34.3973 27.6064 34.472C27.6064 34.78 27.499 35.1487 27.2844 35.578C27.0697 36.0073 26.8877 36.3387 26.7384 36.572C26.5984 36.796 26.4164 37.034 26.1924 37.286C25.7257 37.8087 25.1424 38.07 24.4424 38.07C23.9104 38.07 23.5044 37.8833 23.2244 37.51C22.9537 37.1273 22.8184 36.7213 22.8184 36.292C22.8184 35.228 23.047 34.4207 23.5044 33.87C23.971 33.31 24.559 33.03 25.2684 33.03C25.567 33.03 25.8004 33.1093 25.9684 33.268C26.1457 33.4173 26.2344 33.59 26.2344 33.786C26.2344 34.15 26.169 34.4207 26.0384 34.598C25.9077 34.7753 25.749 34.864 25.5624 34.864C25.4037 34.864 25.3244 34.7753 25.3244 34.598ZM30.7582 38.07C30.3942 38.07 30.1189 37.9953 29.9322 37.846C29.8669 37.7807 29.8342 37.6173 29.8342 37.356C29.8342 37.0853 29.8436 36.726 29.8622 36.278C29.6196 36.8847 29.3769 37.3373 29.1342 37.636C28.9009 37.9253 28.5976 38.07 28.2242 38.07C27.8509 38.07 27.5242 37.8973 27.2442 37.552C26.9642 37.1973 26.8242 36.6467 26.8242 35.9C26.8242 35.144 27.0342 34.4767 27.4542 33.898C27.8836 33.3193 28.4436 33.03 29.1342 33.03C29.4329 33.03 29.7689 33.226 30.1422 33.618C30.2169 33.5153 30.3476 33.394 30.5342 33.254C30.7302 33.1047 30.8936 33.03 31.0242 33.03C31.1642 33.03 31.2342 33.2073 31.2342 33.562C31.2342 33.6553 31.2062 33.8373 31.1502 34.108C31.1036 34.3787 31.0476 34.5747 30.9822 34.696C30.8982 34.9107 30.8562 35.6713 30.8562 36.978C30.8562 37.23 30.8842 37.356 30.9402 37.356C31.0989 37.3467 31.3182 37.1507 31.5982 36.768C31.8782 36.376 32.1536 35.8767 32.4242 35.27C32.7042 34.6633 32.8722 34.36 32.9282 34.36C32.9936 34.36 33.0262 34.3973 33.0262 34.472C33.0262 34.7333 32.8909 35.1487 32.6202 35.718C31.8829 37.286 31.2622 38.07 30.7582 38.07ZM29.0502 33.59C28.7889 33.59 28.5089 33.786 28.2102 34.178C27.9209 34.5607 27.7762 35.0133 27.7762 35.536C27.7762 36.0587 27.8509 36.488 28.0002 36.824C28.1589 37.16 28.3642 37.328 28.6162 37.328C28.9242 37.328 29.3769 36.558 29.9742 35.018C29.9836 34.9433 29.9929 34.8173 30.0022 34.64C30.0209 34.4533 30.0349 34.3133 30.0442 34.22C29.9602 34.0707 29.8109 33.9307 29.5962 33.8C29.3909 33.66 29.2089 33.59 29.0502 33.59ZM35.3196 35.718C34.5823 37.286 33.9569 38.07 33.4436 38.07C32.9396 38.07 32.6409 38.0093 32.5476 37.888C32.4636 37.7667 32.4216 37.3653 32.4216 36.684C32.4216 36.0027 32.4869 35.018 32.6176 33.73C32.1509 33.6367 31.9036 33.4453 31.8756 33.156C31.8756 33.0067 31.9736 32.932 32.1696 32.932C32.3656 32.932 32.5383 32.9693 32.6876 33.044C32.7716 32.372 32.8696 31.6907 32.9816 31C33.0096 30.8227 33.0983 30.6547 33.2476 30.496C33.3969 30.3373 33.5416 30.258 33.6816 30.258C33.8029 30.258 33.8636 30.4493 33.8636 30.832C33.8636 31.0093 33.7983 31.826 33.6676 33.282C33.9196 33.2353 34.1949 33.142 34.4936 33.002C34.8016 32.862 34.9836 32.792 35.0396 32.792C35.2076 32.792 35.2916 32.8433 35.2916 32.946C35.3009 33.0393 35.1283 33.17 34.7736 33.338C34.4189 33.4967 34.0363 33.618 33.6256 33.702C33.5136 35.0647 33.4576 36.096 33.4576 36.796C33.4576 37.1693 33.5136 37.356 33.6256 37.356C33.7936 37.3467 34.0176 37.1507 34.2976 36.768C34.5776 36.3853 34.8529 35.8907 35.1236 35.284C35.4036 34.668 35.5716 34.36 35.6276 34.36C35.6929 34.36 35.7256 34.3973 35.7256 34.472C35.7256 34.7333 35.5903 35.1487 35.3196 35.718Z" fill="black"/>
<path d="M4.88095 10.9147C4.98495 8.15289 5.61589 2.30347 7.30762 1C8.17429 1.19644 10.4415 2.27573 12.577 5.02133C14.3565 4.15467 18.8724 2.94133 22.6996 5.02133C23.2495 4.46665 24.0673 3.68244 24.904 2.95363C25.7514 3.28827 26.4985 3.65072 27.238 4.0158L30.2084 5.36754C30.4495 6.7705 30.6036 8.58593 30.6036 10.9147C34.2304 19.224 27.6375 27 19.0943 27C7.93477 27 1.5561 19.3382 4.88095 10.9147Z" fill="black"/>
<path d="M24.904 2.95363C24.0673 3.68244 23.2495 4.46665 22.6996 5.02133C18.8724 2.94133 14.3565 4.15467 12.577 5.02133C10.4415 2.27573 8.17429 1.19644 7.30762 1C5.61589 2.30347 4.98495 8.15289 4.88095 10.9147C1.5561 19.3382 7.93477 27 19.0943 27C27.6375 27 34.2304 19.224 30.6036 10.9147C30.6036 8.58593 30.4495 6.7705 30.2084 5.36754M24.904 2.95363L30.2084 5.36754M24.904 2.95363C26.8273 3.71313 28.2338 4.6159 30.2084 5.36754" stroke="black"/>
</svg>
