<svg width="20" height="21" viewBox="0 0 20 21" fill="none" xmlns="http://www.w3.org/2000/svg">
<path d="M19.3348 4.76329L15.5893 1.01775C15.2813 0.71061 14.6027 0.428467 14.1116 0.428467H2.85714C1.27902 0.428467 0 1.70748 0 3.28561V17.5713C0 19.1494 1.27902 20.4285 2.85714 20.4285H17.1429C18.721 20.4285 20 19.1494 20 17.5713V6.31686C20 5.82579 19.7188 5.14722 19.3348 4.76329ZM10 17.5713C8.42232 17.5713 7.14286 16.2919 7.14286 14.7142C7.14286 13.1365 8.42232 11.857 10 11.857C11.5777 11.857 12.8571 13.1365 12.8571 14.7142C12.8571 16.2919 11.5759 17.5713 10 17.5713ZM14.2857 8.28561C14.2857 8.67847 13.9643 8.9999 13.5714 8.9999H3.57143C3.17679 8.9999 2.85714 8.67847 2.85714 8.28561V3.9999C2.85714 3.60704 3.17679 3.28561 3.57143 3.28561H13.5714C13.9643 3.28561 14.2857 3.60704 14.2857 3.9999V8.28561Z" fill="black"/>
</svg>
