<svg width="20" height="23" viewBox="0 0 20 23" fill="none" xmlns="http://www.w3.org/2000/svg">
<path d="M6.03571 0.789732C6.27679 0.305714 6.77232 0 7.3125 0H12.6875C13.2277 0 13.7232 0.305714 13.9643 0.789732L14.2857 1.42857H18.5714C19.3616 1.42857 20 2.0683 20 2.85714C20 3.64598 19.3616 4.28571 18.5714 4.28571H1.42857C0.639732 4.28571 0 3.64598 0 2.85714C0 2.0683 0.639732 1.42857 1.42857 1.42857H5.71429L6.03571 0.789732ZM17.625 20.808C17.5536 21.9777 16.6205 22.8571 15.4866 22.8571H4.51339C3.3817 22.8571 2.44509 21.9777 2.37455 20.808L1.38839 5.71429H18.5714L17.625 20.808Z" fill="black"/>
</svg>
