<svg width="40" height="40" viewBox="0 0 40 40" fill="none" xmlns="http://www.w3.org/2000/svg">
<path d="M20.0007 0.833496C9.42065 0.833496 0.833984 9.42016 0.833984 20.0002C0.833984 30.5802 9.42065 39.1668 20.0007 39.1668C30.5807 39.1668 39.1673 30.5802 39.1673 20.0002C39.1673 9.42016 30.5807 0.833496 20.0007 0.833496ZM10.5515 32.0368C11.3757 30.3118 16.3973 28.6252 20.0007 28.6252C23.604 28.6252 28.6448 30.3118 29.4498 32.0368C26.8432 34.1068 23.5657 35.3335 20.0007 35.3335C16.4357 35.3335 13.1582 34.1068 10.5515 32.0368ZM32.1907 29.2577C29.4498 25.9227 22.799 24.7918 20.0007 24.7918C17.2023 24.7918 10.5515 25.9227 7.81065 29.2577C5.85565 26.6893 4.66732 23.4885 4.66732 20.0002C4.66732 11.5477 11.5482 4.66683 20.0007 4.66683C28.4532 4.66683 35.334 11.5477 35.334 20.0002C35.334 23.4885 34.1457 26.6893 32.1907 29.2577ZM20.0007 8.50016C16.2823 8.50016 13.2923 11.4902 13.2923 15.2085C13.2923 18.9268 16.2823 21.9168 20.0007 21.9168C23.719 21.9168 26.709 18.9268 26.709 15.2085C26.709 11.4902 23.719 8.50016 20.0007 8.50016ZM20.0007 18.0835C18.4098 18.0835 17.1257 16.7993 17.1257 15.2085C17.1257 13.6177 18.4098 12.3335 20.0007 12.3335C21.5915 12.3335 22.8757 13.6177 22.8757 15.2085C22.8757 16.7993 21.5915 18.0835 20.0007 18.0835Z" fill="black"/>
</svg>
